<?xml version="1.0"?>
<svg xmlns="http://www.w3.org/2000/svg" xmlns:xlink="http://www.w3.org/1999/xlink" xmlns:svgjs="http://svgjs.com/svgjs" version="1.1" width="512" height="512" x="0" y="0" viewBox="0 0 400.187 400.187" style="enable-background:new 0 0 512 512" xml:space="preserve"><g>
<g xmlns="http://www.w3.org/2000/svg">
	<g>
		<g>
			<path d="M155.187,241.88l-26.52,139.2c-1.362,7.742,3.101,15.327,10.531,17.895c8.352,2.887,17.462-1.543,20.349-9.895     l30.28-90.84l-2.48-8.48L155.187,241.88z" fill="#28454f" data-original="#000000" style=""/>
			<circle cx="196.387" cy="36" r="36" fill="#28454f" data-original="#000000" style=""/>
			<path d="M307.307,181.44v0.16h-0.24c-16.68-9.6-28.56-26.12-40.96-45.88c-6.454-11.09-13.714-21.692-21.72-31.72     c-5.127-6.073-11.157-11.321-17.88-15.56c-3.84-2.368-7.932-4.299-12.2-5.76c-4.522-1.388-9.197-2.221-13.92-2.48     c-2.211-0.152-4.429-0.152-6.64,0c-2.157,0.059-4.309,0.259-6.44,0.6c-4.352,0.604-8.629,1.663-12.76,3.16     c-7.819,2.967-15.041,7.316-21.32,12.84c-5.417,4.828-10.335,10.189-14.68,16c-4,5.36-7.72,10.72-11,16     c-13.2,20.92-23.64,40.4-38.04,55.48c-6.55,5.965-7.025,16.11-1.06,22.66s16.11,7.025,22.66,1.06     c10.165-8.389,19.331-17.918,27.32-28.4c7.8-10.04,14.56-20.24,21.16-29.6l0.8-1.2V216c-0.023,3.218,0.925,6.369,2.72,9.04     l38.92,57.96l31.04,105.64c2.462,8.487,11.337,13.371,19.824,10.909c7.67-2.225,12.525-9.766,11.376-17.669l-13.16-92     c-0.085-0.606-0.206-1.207-0.36-1.8l-18.36-70.16v-64l2,2.84c7.248,10.713,15.412,20.778,24.4,30.08     c9.945,10.083,21.804,18.08,34.88,23.52c8.134,3.452,17.527-0.343,20.979-8.477C317.908,194.197,314.712,185.296,307.307,181.44z     " fill="#28454f" data-original="#000000" style=""/>
		</g>
	</g>
</g>
<g xmlns="http://www.w3.org/2000/svg">
</g>
<g xmlns="http://www.w3.org/2000/svg">
</g>
<g xmlns="http://www.w3.org/2000/svg">
</g>
<g xmlns="http://www.w3.org/2000/svg">
</g>
<g xmlns="http://www.w3.org/2000/svg">
</g>
<g xmlns="http://www.w3.org/2000/svg">
</g>
<g xmlns="http://www.w3.org/2000/svg">
</g>
<g xmlns="http://www.w3.org/2000/svg">
</g>
<g xmlns="http://www.w3.org/2000/svg">
</g>
<g xmlns="http://www.w3.org/2000/svg">
</g>
<g xmlns="http://www.w3.org/2000/svg">
</g>
<g xmlns="http://www.w3.org/2000/svg">
</g>
<g xmlns="http://www.w3.org/2000/svg">
</g>
<g xmlns="http://www.w3.org/2000/svg">
</g>
<g xmlns="http://www.w3.org/2000/svg">
</g>
</g></svg>
