<?xml version="1.0"?>
<svg xmlns="http://www.w3.org/2000/svg" xmlns:xlink="http://www.w3.org/1999/xlink" xmlns:svgjs="http://svgjs.com/svgjs" version="1.1" width="512" height="512" x="0" y="0" viewBox="0 0 411.641 411.641" style="enable-background:new 0 0 512 512" xml:space="preserve" class=""><g>
<g xmlns="http://www.w3.org/2000/svg">
	<g>
		<g>
			<circle cx="196.216" cy="47.641" r="36" fill="#28454f" data-original="#000000" style="" class=""/>
			<path d="M310.416,50.521c-1.562-5.54-3.978-10.803-7.16-15.6c-5.551-8.199-12.593-15.282-20.76-20.88     c-3.686-2.606-7.519-4.996-11.48-7.16c-1.96-1.08-4-2.08-5.96-3.04c-1.96-0.96-4-1.76-6.52-2.84     c-8.286-3.07-17.492,1.159-20.562,9.446c-2.623,7.082,0.062,15.033,6.442,19.074l1.4,0.84l4,2.32c1.4,0.88,2.8,1.76,4,2.68     c2.687,1.821,5.265,3.798,7.72,5.92c4.357,3.579,8.064,7.882,10.96,12.72c1.901,3.067,2.599,6.729,1.96,10.28     c-0.328,1.789-0.964,3.508-1.88,5.08c-0.985,1.713-2.211,3.275-3.64,4.64c-3.79,3.383-8.133,6.089-12.84,8     c-5.824,2.4-11.884,4.183-18.08,5.32c-13.788,2.609-27.77,4.055-41.8,4.32c-76,0-96.48,88.88-96.8,136     c-0.008,8.578,6.75,15.635,15.32,16h0.72c8.36,0.027,15.331-6.387,16-14.72c0-0.64,3.56-40.36,20.84-68.88v67.2l-8,167.64     c-0.441,8.607,6.014,16.017,14.6,16.76h1.32c8.152,0.056,15.042-6.025,16-14.12l17.24-145.88h5.48l17.28,145.88     c0.958,8.095,7.848,14.176,16,14.12h1.36c8.602-0.723,15.08-8.139,14.64-16.76l-8-167.64v-98.52l6.48-1.08     c8.979-1.989,17.721-4.926,26.08-8.76c9.562-4.246,18.111-10.477,25.08-18.28c3.81-4.344,6.963-9.222,9.36-14.48     c2.458-5.411,4.051-11.174,4.72-17.08C312.613,62.827,312.097,56.541,310.416,50.521z" fill="#28454f" data-original="#000000" style="" class=""/>
		</g>
	</g>
</g>
<g xmlns="http://www.w3.org/2000/svg">
</g>
<g xmlns="http://www.w3.org/2000/svg">
</g>
<g xmlns="http://www.w3.org/2000/svg">
</g>
<g xmlns="http://www.w3.org/2000/svg">
</g>
<g xmlns="http://www.w3.org/2000/svg">
</g>
<g xmlns="http://www.w3.org/2000/svg">
</g>
<g xmlns="http://www.w3.org/2000/svg">
</g>
<g xmlns="http://www.w3.org/2000/svg">
</g>
<g xmlns="http://www.w3.org/2000/svg">
</g>
<g xmlns="http://www.w3.org/2000/svg">
</g>
<g xmlns="http://www.w3.org/2000/svg">
</g>
<g xmlns="http://www.w3.org/2000/svg">
</g>
<g xmlns="http://www.w3.org/2000/svg">
</g>
<g xmlns="http://www.w3.org/2000/svg">
</g>
<g xmlns="http://www.w3.org/2000/svg">
</g>
</g></svg>
