<?xml version="1.0"?>
<svg xmlns="http://www.w3.org/2000/svg" xmlns:xlink="http://www.w3.org/1999/xlink" xmlns:svgjs="http://svgjs.com/svgjs" version="1.1" width="512" height="512" x="0" y="0" viewBox="0 0 400 400" style="enable-background:new 0 0 512 512" xml:space="preserve" class=""><g>
<g xmlns="http://www.w3.org/2000/svg">
	<g>
		<g>
			<circle cx="205.559" cy="36" r="36" fill="#28454f" data-original="#000000" style=""/>
			<path d="M358.079,84.92c-1.563-8.349-9.378-14.021-17.8-12.92c-44.714,5.269-89.696,7.94-134.72,8     c-45.024-0.06-90.006-2.731-134.72-8c-8.769-1.088-16.761,5.138-17.849,13.907c-0.981,7.905,4.002,15.327,11.689,17.413     c31.815,7.718,64.222,12.749,96.88,15.04v90.32L47.079,308c-6.648,5.821-7.318,15.93-1.497,22.578     c5.32,6.075,14.333,7.234,21.016,2.702l133.88-91.88l17.08,144.48c0.958,8.095,7.848,14.176,16,14.12h0.96     c8.46-0.508,15.055-7.525,15.04-16V118.36c32.653-2.238,65.06-7.216,96.88-14.88C354.61,101.336,359.707,93.209,358.079,84.92z" fill="#28454f" data-original="#000000" style=""/>
		</g>
	</g>
</g>
<g xmlns="http://www.w3.org/2000/svg">
</g>
<g xmlns="http://www.w3.org/2000/svg">
</g>
<g xmlns="http://www.w3.org/2000/svg">
</g>
<g xmlns="http://www.w3.org/2000/svg">
</g>
<g xmlns="http://www.w3.org/2000/svg">
</g>
<g xmlns="http://www.w3.org/2000/svg">
</g>
<g xmlns="http://www.w3.org/2000/svg">
</g>
<g xmlns="http://www.w3.org/2000/svg">
</g>
<g xmlns="http://www.w3.org/2000/svg">
</g>
<g xmlns="http://www.w3.org/2000/svg">
</g>
<g xmlns="http://www.w3.org/2000/svg">
</g>
<g xmlns="http://www.w3.org/2000/svg">
</g>
<g xmlns="http://www.w3.org/2000/svg">
</g>
<g xmlns="http://www.w3.org/2000/svg">
</g>
<g xmlns="http://www.w3.org/2000/svg">
</g>
</g></svg>
