<?xml version="1.0"?>
<svg xmlns="http://www.w3.org/2000/svg" xmlns:xlink="http://www.w3.org/1999/xlink" xmlns:svgjs="http://svgjs.com/svgjs" version="1.1" width="512" height="512" x="0" y="0" viewBox="0 0 512.027 512.027" style="enable-background:new 0 0 512 512" xml:space="preserve" class=""><g>
<g xmlns="http://www.w3.org/2000/svg" transform="translate(-1 -1)">
	<g>
		<path d="M464.947,175.382C435.004-5.628,258.382,1.019,257.446,1.037C255.671,1.002,79.023-5.584,49.079,175.382    c-5.65,34.18-4.59,70.497,3.151,107.935l42.69,206.31c1.342,6.541,5.932,11.723,12.244,13.868    c6.347,2.136,13.135,0.821,18.185-3.566l43.629-37.816v42.087c0,4.873,3.946,8.828,8.828,8.828s8.828-3.955,8.828-8.828v-44.581    c0.86,0.576,1.719,1.15,2.576,1.723l8.466,5.685c3.346,2.26,6.603,4.679,9.852,7.08c14.142,10.452,28.76,21.266,49.32,21.266    s35.178-10.805,49.311-21.257c3.257-2.41,6.524-4.829,9.869-7.089l7.724-5.208c1.37-0.919,2.747-1.844,4.124-2.77v45.152    c0,4.873,3.946,8.828,8.828,8.828c4.882,0,8.828-3.955,8.828-8.828V462.53l43.147,37.398c3.469,3.001,7.751,4.573,12.138,4.573    c2.013,0,4.052-0.335,6.047-1.006c6.312-2.145,10.902-7.327,12.244-13.859l42.69-206.318    C469.537,245.879,470.597,209.562,464.947,175.382z M313.926,447.155l-7.812,5.252c-3.54,2.401-7,4.961-10.452,7.512    c-12.385,9.145-24.073,17.796-38.815,17.796s-26.439-8.651-38.815-17.805c-3.452-2.551-6.903-5.102-10.443-7.503l-8.563-5.747    c-5.044-3.373-10.151-6.79-15.187-10.321c-0.584-0.548-1.24-1.018-1.957-1.392c-8.049-5.717-15.874-11.746-22.898-18.407    c-40.024-38.003-43.379-97.192-43.379-149.689c0-37.058,7.556-66.639,12.615-82.291c13.444,11.423,39.495,28.328,75.847,28.328    c3.761,0,7.097-2.383,8.333-5.923c1.236-3.549,0.088-7.495-2.86-9.825c-13.692-10.849-33.474-31.691-32.45-41.966    c0.071-0.706,0.221-2.172,2.516-3.849C196.536,153.267,295.423,169.166,394.16,282c2.684,3.063,4.14,7.018,4.096,11.123    c-0.247,25.07-4.97,87.269-43.502,123.374C342.474,428.017,327.961,437.745,313.926,447.155z M444.502,279.742l-42.69,206.327    c-0.035,0.159-0.106,0.53-0.627,0.706c-0.521,0.185-0.821-0.079-0.936-0.185l-49.998-43.335    c5.709-4.342,11.283-8.919,16.569-13.879c43.511-40.766,48.825-108.738,49.09-136.077c0.079-8.448-2.922-16.587-8.457-22.916    v-0.009C294.699,141.526,182.801,133.723,178.078,133.449c-1.554-0.079-3.107,0.247-4.493,0.953    c-10.602,5.385-13.497,13.321-14.062,19.032c-1.271,12.721,8.227,26.898,18.308,38.118c-29.29-8.386-46.212-28.195-46.415-28.434    c-1.933-2.348-4.979-3.513-7.989-3.116c-3.028,0.415-5.623,2.357-6.868,5.146c-0.759,1.695-18.609,42.284-18.609,101.703    c0,60.292,5.923,121.715,48.878,162.489c5.326,5.052,10.96,9.697,16.738,14.085l-49.79,43.164    c-0.115,0.106-0.415,0.371-0.936,0.185c-0.521-0.177-0.591-0.547-0.627-0.715l-42.69-206.318    c-7.3-35.301-8.324-69.447-3.028-101.482C93.853,12.946,250.022,18.348,257.446,18.675c6.656-0.327,162.684-6.047,190.084,159.585    C452.827,210.295,451.803,244.44,444.502,279.742z" fill="#28454f" data-original="#000000" style=""/>
	</g>
</g>
<g xmlns="http://www.w3.org/2000/svg">
</g>
<g xmlns="http://www.w3.org/2000/svg">
</g>
<g xmlns="http://www.w3.org/2000/svg">
</g>
<g xmlns="http://www.w3.org/2000/svg">
</g>
<g xmlns="http://www.w3.org/2000/svg">
</g>
<g xmlns="http://www.w3.org/2000/svg">
</g>
<g xmlns="http://www.w3.org/2000/svg">
</g>
<g xmlns="http://www.w3.org/2000/svg">
</g>
<g xmlns="http://www.w3.org/2000/svg">
</g>
<g xmlns="http://www.w3.org/2000/svg">
</g>
<g xmlns="http://www.w3.org/2000/svg">
</g>
<g xmlns="http://www.w3.org/2000/svg">
</g>
<g xmlns="http://www.w3.org/2000/svg">
</g>
<g xmlns="http://www.w3.org/2000/svg">
</g>
<g xmlns="http://www.w3.org/2000/svg">
</g>
</g></svg>
