<?xml version="1.0"?>
<svg xmlns="http://www.w3.org/2000/svg" xmlns:xlink="http://www.w3.org/1999/xlink" xmlns:svgjs="http://svgjs.com/svgjs" version="1.1" width="512" height="512" x="0" y="0" viewBox="0 0 512 512" style="enable-background:new 0 0 512 512" xml:space="preserve" class=""><g><g xmlns="http://www.w3.org/2000/svg"><path d="m500.5 55c6.341 0 11.5-5.159 11.5-11.5v-32c0-6.341-5.159-11.5-11.5-11.5h-32c-6.341 0-11.5 5.159-11.5 11.5v8.5h-173.5v-8.5c0-6.341-5.159-11.5-11.5-11.5h-32c-6.341 0-11.5 5.159-11.5 11.5v8.5h-173.5v-8.5c0-6.341-5.159-11.5-11.5-11.5h-32c-6.341 0-11.5 5.159-11.5 11.5v32c0 6.341 5.159 11.5 11.5 11.5h8.5v173.5h-8.5c-6.341 0-11.5 5.159-11.5 11.5v32c0 6.341 5.159 11.5 11.5 11.5h8.5v173.5h-8.5c-6.341 0-11.5 5.159-11.5 11.5v32c0 6.341 5.159 11.5 11.5 11.5h32c6.341 0 11.5-5.159 11.5-11.5v-8.5h173.5v8.5c0 6.341 5.159 11.5 11.5 11.5h32c6.341 0 11.5-5.159 11.5-11.5v-8.5h173.5v8.5c0 6.341 5.159 11.5 11.5 11.5h32c6.341 0 11.5-5.159 11.5-11.5v-32c0-6.341-5.159-11.5-11.5-11.5h-8.5v-173.5h8.5c6.341 0 11.5-5.159 11.5-11.5v-32c0-6.341-5.159-11.5-11.5-11.5h-8.5v-173.5zm-28.5-40h25v25h-25zm-228.5 0h25v25h-25zm-228.5 0h25v25h-25zm0 228.5h25v25h-25zm25 253.5h-25v-25h25zm228.5 0h-25v-25h25zm228.5 0h-25v-25h25zm0-228.5h-25v-25h25zm-20-40h-8.5c-6.341 0-11.5 5.159-11.5 11.5v32c0 6.341 5.159 11.5 11.5 11.5h8.5v173.5h-8.5c-6.341 0-11.5 5.159-11.5 11.5v8.5h-173.5v-8.5c0-6.341-5.159-11.5-11.5-11.5h-32c-6.341 0-11.5 5.159-11.5 11.5v8.5h-173.5v-8.5c0-6.341-5.159-11.5-11.5-11.5h-8.5v-173.5h8.5c6.341 0 11.5-5.159 11.5-11.5v-32c0-6.341-5.159-11.5-11.5-11.5h-8.5v-173.5h8.5c6.341 0 11.5-5.159 11.5-11.5v-8.5h173.5v8.5c0 6.341 5.159 11.5 11.5 11.5h32c6.341 0 11.5-5.159 11.5-11.5v-8.5h173.5v8.5c0 6.341 5.159 11.5 11.5 11.5h8.5z" fill="#28454f" data-original="#000000" style="" class=""/><path d="m367.016 106.211c-7.564-13.108-21.668-21.251-36.806-21.251h-148.42c-15.138 0-29.241 8.143-36.805 21.25l-74.221 128.541c-7.563 13.107-7.563 29.391.001 42.499l74.219 128.539c7.565 13.108 21.668 21.251 36.806 21.251h148.42c15.138 0 29.241-8.143 36.804-21.249l35.462-61.421c2.071-3.588.842-8.175-2.745-10.245-3.59-2.07-8.175-.843-10.245 2.745l-23.689 41.03h-219.595l-62.446-108.149c-4.895-8.481-4.895-19.021-.001-27.501l60.865-105.41h52.03c4.142 0 7.5-3.357 7.5-7.5s-3.358-7.5-7.5-7.5h-43.369l4.695-8.131c4.894-8.48 14.019-13.749 23.814-13.749h148.42c9.795 0 18.92 5.269 23.814 13.75l4.694 8.13h-127.068c-4.142 0-7.5 3.357-7.5 7.5s3.358 7.5 7.5 7.5h135.73l60.864 105.409c4.896 8.481 4.896 19.021.001 27.501l-20.641 35.75c-2.071 3.587-.842 8.174 2.745 10.245 3.585 2.069 8.174.842 10.245-2.745l20.642-35.751c7.563-13.107 7.563-29.391-.001-42.499zm-9.88 286.689-3.112 5.391c-4.894 8.48-14.019 13.749-23.813 13.749h-148.421c-9.795 0-18.92-5.269-23.815-13.751l-3.111-5.389z" fill="#28454f" data-original="#000000" style="" class=""/><path d="m127.32 220.715c-4.142 0-7.5 3.358-7.5 7.5v54.554c0 4.629 3.764 8.441 8.388 8.499.986.013 18.166-.027 18.614-.029 4.142-.023 7.481-3.399 7.458-7.542-.023-4.128-3.376-7.458-7.499-7.458-.014 0-.029 0-.043 0-.096.001-6.512.036-11.917.045v-48.068c-.001-4.143-3.359-7.501-7.501-7.501z" fill="#28454f" data-original="#000000" style="" class=""/><path d="m278.439 235.782c4.688-.375 9.189.798 13.031 3.393 3.433 2.317 8.094 1.416 10.413-2.017 2.318-3.432 1.416-8.094-2.017-10.413-6.691-4.521-14.517-6.565-22.628-5.914-17.212 1.382-31.099 15.418-32.302 32.65-.692 9.906 2.643 19.347 9.388 26.58 6.652 7.133 16.06 11.224 25.81 11.224 18.079 0 31.021-14.066 31.473-34.199.053-2.241-.817-4.448-2.386-6.055-1.571-1.608-3.762-2.531-6.01-2.531h-15.716c-4.143 0-7.5 3.357-7.5 7.5s3.357 7.5 7.5 7.5h8.19c-1.841 6.949-6.562 12.785-15.552 12.785-5.688 0-10.958-2.292-14.84-6.454-3.877-4.158-5.793-9.594-5.395-15.305.694-9.892 8.664-17.951 18.541-18.744z" fill="#28454f" data-original="#000000" style="" class=""/><path d="m356.896 291.285c19.456 0 35.285-15.829 35.285-35.285s-15.829-35.285-35.285-35.285-35.286 15.829-35.286 35.285 15.829 35.285 35.286 35.285zm0-55.57c11.186 0 20.285 9.1 20.285 20.285s-9.1 20.285-20.285 20.285-20.285-9.1-20.285-20.285 9.099-20.285 20.285-20.285z" fill="#28454f" data-original="#000000" style="" class=""/><path d="m164.279 256c0 19.456 15.829 35.285 35.285 35.285s35.285-15.829 35.285-35.285-15.829-35.285-35.285-35.285-35.285 15.829-35.285 35.285zm35.285-20.285c11.185 0 20.285 9.1 20.285 20.285s-9.1 20.285-20.285 20.285-20.285-9.1-20.285-20.285 9.1-20.285 20.285-20.285z" fill="#28454f" data-original="#000000" style="" class=""/><path d="m324.591 177.856c-.485-10.979-9.66-19.581-20.889-19.581h-84.702c-5.565 0-10.965 2.307-14.813 6.329-3.903 4.079-5.916 9.438-5.667 15.089.484 10.98 9.658 19.582 20.887 19.582h84.703c5.565 0 10.965-2.307 14.812-6.328 3.905-4.079 5.918-9.438 5.669-15.091zm-16.505 4.72c-1.049 1.096-2.46 1.699-3.976 1.699h-84.703c-3.127 0-5.774-2.352-5.902-5.243-.067-1.522.472-2.964 1.519-4.058 1.048-1.096 2.46-1.699 3.975-1.699h84.702c3.127 0 5.775 2.352 5.902 5.242.069 1.524-.47 2.965-1.517 4.059z" fill="#28454f" data-original="#000000" style="" class=""/><path d="m219.408 355.09h84.703c5.565 0 10.965-2.307 14.812-6.328 3.904-4.079 5.917-9.438 5.668-15.091-.485-10.979-9.66-19.581-20.889-19.581h-84.702c-5.565 0-10.965 2.307-14.813 6.329-3.903 4.079-5.916 9.438-5.667 15.089.484 10.98 9.659 19.582 20.888 19.582zm-4.383-24.301c1.048-1.096 2.46-1.699 3.975-1.699h84.702c3.127 0 5.775 2.352 5.902 5.242.067 1.523-.472 2.965-1.519 4.059-1.049 1.096-2.46 1.699-3.976 1.699h-84.703c-3.127 0-5.774-2.352-5.902-5.243-.066-1.523.474-2.964 1.521-4.058z" fill="#28454f" data-original="#000000" style="" class=""/></g></g></svg>
