<?xml version="1.0"?>
<svg xmlns="http://www.w3.org/2000/svg" xmlns:xlink="http://www.w3.org/1999/xlink" xmlns:svgjs="http://svgjs.com/svgjs" version="1.1" width="512" height="512" x="0" y="0" viewBox="0 0 400 400" style="enable-background:new 0 0 512 512" xml:space="preserve"><g>
<g xmlns="http://www.w3.org/2000/svg">
	<g>
		<g>
			<path d="M335.59,86.475c-7.73-4.281-17.467-1.485-21.749,6.245l-0.32,0.56c-5.934,11.198-12.94,21.794-20.92,31.64     c-1.04,1.2-2.12,2.32-3.08,3.24c-0.926-0.51-1.797-1.113-2.6-1.8c-1.015-0.717-1.978-1.505-2.88-2.36     c-8.2-7.04-18.2-20-33.48-29.72c-7.601-4.96-15.966-8.636-24.76-10.88c-4.281-1.149-8.639-1.991-13.04-2.52     c-4.36-0.56-8.56-1.08-12.84-0.84c-4.28,0.24-8.52,0.28-12.84,0.84c-4.401,0.529-8.759,1.371-13.04,2.52     c-8.794,2.245-17.159,5.921-24.76,10.88c-15.16,9.72-25.24,22.68-33.24,29.72c-0.924,0.899-1.913,1.728-2.96,2.48     c-0.803,0.687-1.674,1.29-2.6,1.8c-1-0.92-2.04-2.04-3.08-3.24c-7.98-9.846-14.986-20.442-20.92-31.64l-0.32-0.56     c-3.952-7.135-12.639-10.156-20.165-7.011c-8.154,3.407-12.002,12.778-8.595,20.931c2.823,7.003,6.015,13.853,9.56,20.52     c3.637,6.962,7.781,13.647,12.4,20c2.772,3.765,5.907,7.248,9.36,10.4c2.321,2.082,4.871,3.893,7.6,5.4     c1.789,0.981,3.663,1.798,5.6,2.44c2.592,0.808,5.286,1.239,8,1.28c1.529,0.044,3.057-0.077,4.56-0.36l2.32-0.48     c0.76-0.36,0.76-0.36,1.16-0.36l3.8-1.28c2.465-0.833,4.849-1.89,7.12-3.16c2.187-1.104,4.287-2.375,6.28-3.8     c1.903-1.225,3.733-2.561,5.48-4c6.2-5.04,11-10.04,15.4-14.04v76.28l-8,167.64c-0.44,8.621,6.038,16.037,14.64,16.76h1.36     c8.152,0.056,15.042-6.025,16-14.12L197.281,240h5.52l17.24,145.88c0.958,8.095,7.848,14.176,16,14.12h1.32     c8.618-0.702,15.119-8.124,14.68-16.76l-8-167.6v-76.32c4.4,4.2,9.2,9.04,15.28,13.96c1.747,1.439,3.577,2.775,5.48,4     c1.993,1.425,4.093,2.695,6.28,3.8c2.271,1.27,4.655,2.327,7.12,3.16l3.8,1.28c0.4,0.12,0.4,0.36,1.16,0.36l2.32,0.48     c1.503,0.283,3.031,0.404,4.56,0.36c2.714-0.041,5.408-0.472,8-1.28c1.937-0.642,3.811-1.459,5.6-2.44     c2.73-1.506,5.279-3.318,7.6-5.4c3.453-3.151,6.588-6.635,9.36-10.4c4.619-6.353,8.764-13.038,12.4-20     c3.545-6.667,6.737-13.517,9.56-20.52l0.04-0.04C345.746,99.114,342.725,90.427,335.59,86.475z M113.561,130.533v-0.053     C113.61,130.529,113.598,130.538,113.561,130.533z" fill="#28454f" data-original="#000000" style=""/>
			<circle cx="200.041" cy="36" r="36" fill="#28454f" data-original="#000000" style=""/>
		</g>
	</g>
</g>
<g xmlns="http://www.w3.org/2000/svg">
</g>
<g xmlns="http://www.w3.org/2000/svg">
</g>
<g xmlns="http://www.w3.org/2000/svg">
</g>
<g xmlns="http://www.w3.org/2000/svg">
</g>
<g xmlns="http://www.w3.org/2000/svg">
</g>
<g xmlns="http://www.w3.org/2000/svg">
</g>
<g xmlns="http://www.w3.org/2000/svg">
</g>
<g xmlns="http://www.w3.org/2000/svg">
</g>
<g xmlns="http://www.w3.org/2000/svg">
</g>
<g xmlns="http://www.w3.org/2000/svg">
</g>
<g xmlns="http://www.w3.org/2000/svg">
</g>
<g xmlns="http://www.w3.org/2000/svg">
</g>
<g xmlns="http://www.w3.org/2000/svg">
</g>
<g xmlns="http://www.w3.org/2000/svg">
</g>
<g xmlns="http://www.w3.org/2000/svg">
</g>
</g></svg>
