<?xml version="1.0"?>
<svg xmlns="http://www.w3.org/2000/svg" xmlns:xlink="http://www.w3.org/1999/xlink" xmlns:svgjs="http://svgjs.com/svgjs" version="1.1" width="512" height="512" x="0" y="0" viewBox="0 0 512 512" style="enable-background:new 0 0 512 512" xml:space="preserve" class=""><g><path xmlns="http://www.w3.org/2000/svg" d="m411.234 435.314h-310.468c-55.562 0-100.766-45.203-100.766-100.766v-157.096c0-55.563 45.204-100.766 100.766-100.766h310.468c55.563 0 100.766 45.203 100.766 100.766v157.097c0 55.562-45.203 100.765-100.766 100.765zm-310.468-328.628c-39.02 0-70.766 31.745-70.766 70.766v157.097c0 39.021 31.746 70.766 70.766 70.766h310.468c39.021 0 70.766-31.746 70.766-70.766v-157.097c0-39.021-31.745-70.766-70.766-70.766z" fill="#98b6be" data-original="#000000"/><path xmlns="http://www.w3.org/2000/svg" d="m206.297 352.07c-2.524 0-5.051-.636-7.332-1.914-4.735-2.653-7.668-7.658-7.668-13.086v-164.08c0-5.46 2.967-10.489 7.746-13.129 4.779-2.641 10.616-2.476 15.238.431l132.218 83.13c4.393 2.762 7.046 7.599 7.016 12.788-.031 5.189-2.742 9.994-7.168 12.704l-132.217 80.95c-2.401 1.468-5.115 2.206-7.833 2.206zm15-151.931v110.159l88.767-54.347z" fill="#98b6be" data-original="#000000"/></g></svg>
